<svg xmlns="http://www.w3.org/2000/svg" class="cui3-icon cui3-icon--s" viewBox="0 0 16 16"><g stroke="none" fill="#404346" stroke-width="1px"><path d="M6.67 1.5h2.66c.17 0 .3.13.32.3l.17 1.68c.43.17.83.4 1.18.68l1.55-.7a.33.33 0 0 1 .41.14l1.33 2.3c.09.15.05.33-.09.43l-1.37.99a4.92 4.92 0 0 1 0 1.36l1.37 1c.14.09.18.27.1.42l-1.34 2.3a.33.33 0 0 1-.41.14l-1.55-.7a4.6 4.6 0 0 1-1.18.68l-.17 1.69a.33.33 0 0 1-.32.29H6.67a.33.33 0 0 1-.33-.3l-.16-1.68c-.43-.17-.83-.4-1.19-.68l-1.54.7a.33.33 0 0 1-.42-.14L1.7 10.1a.32.32 0 0 1 .1-.43l1.37-.99a4.92 4.92 0 0 1 0-1.36l-1.37-1a.32.32 0 0 1-.1-.42l1.33-2.3c.09-.15.27-.2.42-.14l1.54.7c.36-.28.76-.51 1.19-.68l.16-1.69a.33.33 0 0 1 .33-.29zM8 10a2 2 0 1 0 0-4 2 2 0 0 0 0 4z" stroke="none" fill="#404346" stroke-width="1px"></path></g></svg>