<svg xmlns="http://www.w3.org/2000/svg" class="cui3-icon cui3-icon--black-88" viewBox="0 0 24 24"><g stroke="none" fill="#404346" stroke-width="1px"><path d="M9.95 2h4.1c.26 0 .47.2.5.45l.26 2.6a7.5 7.5 0 0 1 1.81 1.04L19 5.02a.5.5 0 0 1 .64.2l2.05 3.55a.5.5 0 0 1-.15.66l-2.11 1.52a7.56 7.56 0 0 1 0 2.1l2.11 1.52c.21.15.27.43.15.66l-2.05 3.54a.5.5 0 0 1-.64.2l-2.38-1.06c-.55.43-1.16.78-1.81 1.05l-.26 2.59a.5.5 0 0 1-.5.45h-4.1a.5.5 0 0 1-.5-.45l-.25-2.6a7.5 7.5 0 0 1-1.82-1.04L5 18.98a.5.5 0 0 1-.64-.2l-2.04-3.55a.5.5 0 0 1 .14-.66l2.11-1.52a7.56 7.56 0 0 1 0-2.1L2.46 9.43a.5.5 0 0 1-.14-.66l2.04-3.54a.5.5 0 0 1 .64-.2l2.38 1.06A7.5 7.5 0 0 1 9.2 5.04l.26-2.59a.5.5 0 0 1 .5-.45zM12 15.5a3.5 3.5 0 1 0 0-7 3.5 3.5 0 0 0 0 7z" stroke="none" fill="#404346" stroke-width="1px"></path></g></svg>