<svg xmlns="http://www.w3.org/2000/svg" class="cui3-icon cui3-icon--s" viewBox="0 0 16 16"><g stroke="none" fill="#404346" stroke-width="1px"><path d="M4 6.67c-.73 0-1.33.6-1.33 1.33 0 .73.6 1.33 1.33 1.33.73 0 1.33-.6 1.33-1.33 0-.73-.6-1.33-1.33-1.33zm8 0c-.73 0-1.33.6-1.33 1.33 0 .73.6 1.33 1.33 1.33.73 0 1.33-.6 1.33-1.33 0-.73-.6-1.33-1.33-1.33zm-4 0c-.73 0-1.33.6-1.33 1.33 0 .73.6 1.33 1.33 1.33.73 0 1.33-.6 1.33-1.33 0-.73-.6-1.33-1.33-1.33z" stroke="none" fill="#404346" stroke-width="1px"></path></g></svg>